<?xml version="1.0" standalone="no"?>
<!DOCTYPE svg PUBLIC "-//W3C//DTD SVG 20010904//EN"
 "http://www.w3.org/TR/2001/REC-SVG-20010904/DTD/svg10.dtd">
<svg version="1.0" xmlns="http://www.w3.org/2000/svg"
 width="100.000000pt" height="100.000000pt" viewBox="0 0 100.000000 100.000000"
 preserveAspectRatio="xMidYMid meet">
<metadata>
Created by potrace 1.11, written by Peter Selinger 2001-2013
</metadata>
<g transform="translate(0.000000,100.000000) scale(0.100000,-0.100000)"
fill="#000000" stroke="none">
<path d="M550 856 c-25 -7 -57 -9 -72 -5 -42 11 -149 4 -190 -14 -61 -26 -105
-65 -128 -114 -11 -25 -32 -57 -45 -71 -77 -83 -97 -209 -49 -303 25 -51 71
-103 97 -112 9 -3 8 -9 -3 -23 -14 -19 -14 -19 8 0 19 17 26 15 24 -5 -1 -4 8
-4 20 -1 12 3 19 1 15 -4 -3 -6 4 -10 16 -11 32 -1 66 -8 73 -15 3 -4 17 -3
30 2 14 6 24 6 24 1 0 -5 8 -8 18 -6 9 1 23 -2 30 -8 15 -12 30 -15 118 -21
88 -6 239 31 259 64 4 6 11 8 16 5 5 -4 9 1 9 11 0 11 6 15 19 11 13 -3 18 -1
14 9 -2 7 5 19 16 26 12 7 21 16 21 20 0 7 42 73 60 95 6 7 10 16 10 20 -1 5
2 31 6 58 12 78 11 106 -4 160 -48 176 -234 279 -412 231z m-92 -31 c8 -8 -57
-35 -99 -41 -24 -4 -52 -11 -61 -16 -23 -11 -23 4 0 25 29 27 82 44 120 40 20
-2 38 -6 40 -8z m200 -76 c52 -29 90 -79 106 -139 5 -17 0 -13 -14 12 -34 62
-89 110 -165 142 l-40 17 38 -6 c21 -4 55 -15 75 -26z m-311 -8 c-13 -14 -36
-44 -50 -65 -25 -38 -33 -37 -38 4 -5 45 2 56 43 71 61 22 72 20 45 -10z m217
-5 c22 -11 53 -38 70 -59 27 -33 31 -47 31 -95 -1 -63 -34 -137 -66 -147 -41
-13 -154 18 -214 59 -34 23 -40 29 -77 74 -26 32 -27 35 -13 62 22 42 84 100
130 121 46 21 82 17 139 -15z m-380 -306 l17 -35 -35 39 c-20 21 -33 42 -31
47 3 4 1 10 -3 13 -8 5 -9 52 -3 96 2 8 10 -16 20 -55 10 -38 25 -86 35 -105z"/>
<path d="M587 539 c7 -7 15 -10 18 -7 3 3 -2 9 -12 12 -14 6 -15 5 -6 -5z"/>
<path d="M910 310 c-9 -6 -10 -10 -3 -10 6 0 15 5 18 10 8 12 4 12 -15 0z"/>
<path d="M865 260 c-3 -6 1 -7 9 -4 18 7 21 14 7 14 -6 0 -13 -4 -16 -10z"/>
</g>
</svg>
